<svg width="55" height="65" viewBox="0 0 55 65" fill="none" xmlns="http://www.w3.org/2000/svg">
<path d="M35.3022 13.6975L27.8622 21.1375L20.4222 13.6975C19.5232 12.7985 18.0352 12.7985 17.1362 13.6975L16.4852 14.3485C15.5862 15.2475 15.5862 16.7355 16.4852 17.6345L23.9252 25.0745L16.4852 32.5145C15.5862 33.4135 15.5862 34.9015 16.4852 35.8005L17.1362 36.4515C18.0352 37.3505 19.5232 37.3505 20.4222 36.4515L27.8622 29.0115L35.3022 36.4515C36.2012 37.3505 37.6892 37.3505 38.5882 36.4515L39.2392 35.8005C40.1382 34.9015 40.1382 33.4135 39.2392 32.5145L31.7992 25.0745L39.2392 17.6345C40.1382 16.7355 40.1382 15.2475 39.2392 14.3485L38.5882 13.6975C37.6892 12.7675 36.2012 12.7675 35.3022 13.6975Z" fill="#EF8C8C"/>
<path d="M52.3762 0H1.91527C1.40731 0 0.920152 0.20301 0.56097 0.564369C0.201787 0.925729 0 1.41584 0 1.92688V56.9174C0.00270055 59.0595 0.84947 61.1132 2.35471 62.6283C3.85995 64.1434 5.90085 64.9963 8.03009 65H52.3762C52.8842 65 53.3714 64.797 53.7305 64.4356C54.0897 64.0743 54.2915 63.5842 54.2915 63.0731V1.92688C54.2915 1.41584 54.0897 0.925729 53.7305 0.564369C53.3714 0.20301 52.8842 0 52.3762 0ZM50.461 3.85375V48.5021H8.03009C6.54696 48.5003 5.0927 48.9145 3.83054 49.698V3.85375H50.461ZM50.461 61.1385H8.03009C6.91738 61.1372 5.85057 60.6921 5.0634 59.9009C4.27624 59.1097 3.8329 58.0368 3.83054 56.9174V56.5808C3.83155 55.4606 4.27433 54.3865 5.06168 53.5944C5.84903 52.8023 6.91661 52.3568 8.03009 52.3558H50.461V61.1385Z" fill="#C9C9CD"/>
</svg>
