<svg width="58" height="59" viewBox="0 0 58 59" fill="none" xmlns="http://www.w3.org/2000/svg">
<path d="M58 29.5C58 45.4914 44.9914 58.5 29 58.5C13.0086 58.5 0 45.4914 0 29.5C0 13.5086 13.0086 0.5 29 0.5C44.9914 0.5 58 13.5086 58 29.5ZM53.0286 29.5C53.0286 16.2429 42.2571 5.47143 29 5.47143C15.7429 5.47143 4.97143 16.2429 4.97143 29.5C4.97143 42.7571 15.7429 53.5286 29 53.5286C42.2571 53.6114 53.0286 42.7571 53.0286 29.5Z" fill="#C9C9CD"/>
<path d="M29 25.2743C27.5914 25.2743 26.5143 26.3514 26.5143 27.76V40.4372C26.5143 41.8457 27.5914 42.9229 29 42.9229C30.4086 42.9229 31.4857 41.8457 31.4857 40.4372V27.76C31.4857 26.3514 30.4086 25.2743 29 25.2743Z" fill="#8CB4EF"/>
<path d="M29 16.16C28.3371 16.16 27.6743 16.4086 27.26 16.9057C26.7629 17.32 26.5143 17.9829 26.5143 18.6457C26.5143 18.8114 26.5143 18.9771 26.5971 19.1429C26.5971 19.3086 26.68 19.4743 26.7629 19.64C26.8457 19.8057 26.9286 19.8886 27.0114 20.0543C27.0943 20.22 27.1771 20.3029 27.3429 20.4686C28.2543 21.38 29.9114 21.38 30.8229 20.4686C30.9057 20.3857 31.0714 20.22 31.1543 20.0543C31.2371 19.8886 31.32 19.8057 31.4029 19.64C31.4857 19.4743 31.4857 19.3086 31.5686 19.1429C31.5686 18.9771 31.6514 18.8114 31.6514 18.6457C31.6514 17.9829 31.4029 17.32 30.9057 16.9057C30.3257 16.4086 29.6629 16.16 29 16.16Z" fill="#8CB4EF"/>
</svg>
