<svg width="55" height="65" viewBox="0 0 55 65" fill="none" xmlns="http://www.w3.org/2000/svg">
<path d="M18.8567 33.695C19.8003 34.5756 20.7826 35.4082 21.7339 36.2122L21.7442 36.2213C23.0616 37.3366 24.3932 38.4857 25.681 39.5932C26.1906 40.0324 26.7002 40.4716 27.2098 40.9108C27.5601 41.2122 28.0058 41.3778 28.4667 41.3778C28.9275 41.3778 29.3733 41.2122 29.7235 40.9108C30.234 40.4725 30.7436 40.0333 31.2523 39.5932C32.5414 38.4805 33.8717 37.3314 35.1891 36.2213L35.2033 36.2096C36.1533 35.4056 37.1369 34.5743 38.0766 33.695C43.7304 28.418 45.3611 22.7714 42.6683 17.794C42.083 16.7184 41.291 15.7707 40.3383 15.0059C39.3856 14.2411 38.2912 13.6746 37.1188 13.3393C33.2981 12.2564 30.319 13.9462 28.4667 15.8656C26.6143 13.9462 23.6353 12.2564 19.8145 13.3393C18.6433 13.6753 17.5502 14.2422 16.5986 15.007C15.647 15.7717 14.856 16.7191 14.2715 17.794C11.5722 22.7714 13.2029 28.418 18.8567 33.695ZM17.6617 19.6537C17.9992 19.0336 18.4559 18.4871 19.0051 18.0461C19.5544 17.605 20.1853 17.2782 20.8612 17.0846C21.2923 16.9586 21.7387 16.8931 22.1876 16.8901C23.2189 16.8901 24.1651 17.261 25.0726 18.0093C25.7426 18.5712 26.3097 19.2466 26.7483 20.0052C26.911 20.321 27.1565 20.5858 27.4583 20.771C27.7601 20.9562 28.1066 21.0546 28.4601 21.0555C28.8135 21.0565 29.1605 20.9599 29.4633 20.7763C29.766 20.5927 30.013 20.3292 30.1772 20.0143C30.615 19.2525 31.1822 18.5739 31.853 18.0093C33.1421 16.9485 34.5175 16.645 36.0644 17.0846C36.7408 17.2779 37.3722 17.6046 37.9219 18.0457C38.4716 18.4867 38.9286 19.0333 39.2664 19.6537C40.2461 21.4629 40.3209 23.3356 39.4985 25.3781C38.7895 27.138 37.387 29.0276 35.4418 30.8419C34.5678 31.6576 33.6642 32.4228 32.7077 33.232L32.6948 33.2437C31.3632 34.3707 30.0238 35.5275 28.7283 36.6454L28.4667 36.8762L28.1998 36.6454C26.9043 35.5275 25.565 34.3707 24.2334 33.2437L24.2244 33.2359C23.2666 32.4254 22.3617 31.6589 21.4864 30.8419C19.5412 29.0263 18.1348 27.1367 17.4297 25.3781C16.6073 23.3356 16.682 21.4629 17.6617 19.6537Z" fill="#8CEF90"/>
<path d="M2.62375 0H53.0847C53.5927 0 54.0798 0.20301 54.439 0.564369C54.7982 0.925729 55 1.41584 55 1.92688V56.9174C54.9973 59.0595 54.1505 61.1132 52.6453 62.6283C51.1401 64.1434 49.0991 64.9963 46.9699 65H2.62375C2.11579 65 1.62863 64.797 1.26945 64.4356C0.910265 64.0743 0.708478 63.5842 0.708478 63.0731V1.92688C0.708478 1.41584 0.910265 0.925729 1.26945 0.564369C1.62863 0.20301 2.11579 0 2.62375 0ZM4.53902 3.85375V48.5021H46.9699C48.453 48.5003 49.9073 48.9145 51.1695 49.698V3.85375H4.53902ZM4.53902 61.1385H46.9699C48.0826 61.1372 49.1494 60.6921 49.9366 59.9009C50.7238 59.1097 51.1671 58.0368 51.1695 56.9174V56.5808C51.1684 55.4606 50.7257 54.3866 49.9383 53.5944C49.151 52.8023 48.0834 52.3569 46.9699 52.3558H4.53902V61.1385Z" fill="white" fill-opacity="0.78"/>
</svg>
