<svg width="100" height="100" viewBox="0 0 100 100" fill="none" xmlns="http://www.w3.org/2000/svg">
<path d="M47.7888 73.573C43.9928 70.4992 39.3964 68.4837 34.5563 67.5081C28.885 66.3651 22.8643 66.655 17.4129 68.3419V19.153C22.5786 17.3355 28.4041 16.9599 33.8761 18.0621C39.1641 19.1285 44.1131 21.5818 47.7888 25.4567V73.573ZM85.1267 23.4535C85.4083 23.5208 85.6909 23.5922 85.9735 23.6667C86.5161 23.8096 87.0504 23.9637 87.5765 24.127V74.8273C81.1253 73.0005 73.9618 72.6607 67.2259 73.8486C60.5876 75.0191 54.3326 77.6735 49.5295 81.8484C44.7276 77.6735 38.4715 75.0191 31.8322 73.8486C25.0962 72.6607 17.9328 73.0005 11.4815 74.8273V24.127C12.0066 23.9637 12.541 23.8106 13.0836 23.6678L13.9313 23.4535V70.785C13.9365 70.9983 13.9765 71.2156 14.0608 71.4259C14.4164 72.3086 15.4285 72.7383 16.3174 72.3852C21.7452 70.2186 28.0136 69.7032 33.8761 70.884C39.3604 71.9892 44.4789 74.5874 48.1926 78.7154C48.5225 79.1083 49.0127 79.3379 49.5295 79.3379C50.0526 79.3379 50.5417 79.1042 50.8695 78.7113C54.5833 74.5864 59.7008 71.9892 65.182 70.884C71.0023 69.7114 77.2224 70.2115 82.6225 72.3382C82.8527 72.4505 83.1116 72.5137 83.386 72.5137C84.3468 72.5137 85.1267 71.7392 85.1267 70.785V23.4535ZM13.9313 19.9163C13.3425 20.0449 12.765 20.1837 12.1998 20.3327C11.2298 20.5878 10.2618 20.8828 9.30815 21.2114C8.55697 21.4022 8 22.0798 8 22.886V77.1836C8.00617 77.3714 8.037 77.5633 8.10277 77.751C8.41824 78.6491 9.40782 79.1236 10.3121 78.8103C16.7716 76.555 24.2413 76.0182 31.2341 77.251C37.7954 78.4072 43.9065 81.1208 48.3129 85.4263C48.9859 86.0835 50.0711 86.0856 50.7462 85.4263C55.1526 81.1198 61.2637 78.4072 67.824 77.251C74.7685 76.0264 82.1827 76.5478 88.6113 78.7644C88.8271 78.8593 89.0655 78.9124 89.3173 78.9124C90.2781 78.9124 91.0581 78.1378 91.0581 77.1836V22.886C91.0519 22.1737 90.6039 21.5073 89.8886 21.2593C88.8888 20.9113 87.8745 20.6001 86.8572 20.3317C86.2931 20.1827 85.7156 20.0439 85.1267 19.9153V17.9631C85.1206 17.2793 84.7085 16.6323 84.0313 16.3629C77.989 13.9504 71.0147 13.3738 64.5017 14.6862C58.8972 15.8159 53.6174 18.3396 49.5295 22.2901C45.4417 18.3396 40.1619 15.8159 34.5563 14.6862C28.0907 13.383 21.1718 13.9422 15.1593 16.3109C14.4482 16.5282 13.9313 17.1865 13.9313 17.9631V19.9163ZM20.7443 32.8881C19.8555 33.2382 19.4198 34.2403 19.7722 35.1231C20.1247 36.0058 21.1338 36.4385 22.0227 36.0885C25.5648 34.6883 29.6619 34.3556 33.4948 35.12C37.075 35.8333 40.4147 37.5131 42.8234 40.1777C43.4646 40.8859 44.5642 40.9431 45.2773 40.3063C45.9905 39.6695 46.048 38.5775 45.4068 37.8693C42.4792 34.6312 38.4612 32.5983 34.1751 31.7441C29.6989 30.8512 24.903 31.2441 20.7443 32.8881ZM20.7443 58.1969C19.8555 58.547 19.4198 59.5491 19.7722 60.4319C20.1247 61.3146 21.1338 61.7473 22.0227 61.3973C25.5638 59.9971 29.6608 59.6644 33.4938 60.4288C37.076 61.1431 40.4147 62.8219 42.8234 65.4865C43.4646 66.1947 44.5642 66.2519 45.2773 65.6151C45.9905 64.9782 46.048 63.8863 45.4068 63.1781C42.4792 59.94 38.4623 57.9081 34.1741 57.0529C29.6968 56.161 24.902 56.5529 20.7443 58.1969ZM20.7443 41.3237C19.8555 41.6737 19.4198 42.6759 19.7722 43.5586C20.1247 44.4414 21.1338 44.8741 22.0227 44.524C25.5648 43.1239 29.6619 42.7912 33.4948 43.5556C37.075 44.2689 40.4147 45.9487 42.8234 48.6133C43.4646 49.3215 44.5642 49.3786 45.2773 48.7418C45.9905 48.105 46.048 47.0131 45.4068 46.3048C42.4792 43.0667 38.4612 41.0339 34.1751 40.1797C29.6989 39.2868 24.903 39.6797 20.7443 41.3237ZM20.7443 49.7593C19.8555 50.1093 19.4198 51.1115 19.7722 51.9942C20.1247 52.877 21.1338 53.3097 22.0227 52.9596C25.5648 51.5595 29.6619 51.2268 33.4948 51.9912C37.075 52.7045 40.4147 54.3843 42.8234 57.0488C43.4646 57.7571 44.5642 57.8142 45.2773 57.1774C45.9905 56.5406 46.048 55.4487 45.4068 54.7404C42.4792 51.5023 38.4612 49.4695 34.1751 48.6153C29.6989 47.7223 24.903 48.1152 20.7443 49.7593ZM20.7443 24.4525C19.8555 24.8026 19.4198 25.8047 19.7722 26.6875C20.1247 27.5702 21.1338 28.0029 22.0227 27.6529C25.5648 26.2527 29.6619 25.92 33.4948 26.6844C37.075 27.3977 40.4147 29.0775 42.8234 31.7421C43.4646 32.4503 44.5642 32.5075 45.2773 31.8707C45.9905 31.2339 46.048 30.1419 45.4068 29.4337C42.4792 26.1956 38.4612 24.1627 34.1751 23.3085C29.6989 22.4156 24.903 22.8085 20.7443 24.4525ZM51.2703 25.4567C54.9471 21.5818 59.895 19.1285 65.182 18.0621C70.654 16.9599 76.4805 17.3355 81.6452 19.153V68.3419C76.1938 66.655 70.1731 66.3651 64.5017 67.5081C59.6627 68.4837 55.0663 70.4992 51.2703 73.573V25.4567Z" fill="url(#paint0_linear_8_71)"/>
<path fill-rule="evenodd" clip-rule="evenodd" d="M66.5623 29.76C66.5635 29.7601 66.5648 29.7602 66.566 29.7603C66.5705 29.7607 66.575 29.761 66.5795 29.7615C66.7047 29.7691 66.8239 29.843 66.9154 29.9697C67.0068 30.0964 67.0644 30.2675 67.0776 30.4517C68.2239 39.1115 71.4106 44.4723 77.5806 45.9899C77.6913 46.0042 77.796 46.0702 77.8795 46.1785C77.963 46.2867 78.0211 46.4315 78.0451 46.5917C78.0451 46.5917 78.0452 46.5917 78.0451 46.5917C78.0486 46.6146 78.0515 46.6377 78.0536 46.661C78.0541 46.6683 78.0546 46.6757 78.055 46.683C78.0562 46.6997 78.057 46.7165 78.0575 46.7333C78.0577 46.7464 78.0576 46.7594 78.0574 46.7724C78.0574 46.7836 78.0572 46.7949 78.0568 46.806C78.056 46.8247 78.0547 46.8433 78.0529 46.8618C78.0525 46.8673 78.052 46.8728 78.0515 46.8783C78.0335 47.0501 77.9769 47.2078 77.8908 47.326C77.8047 47.4443 77.6941 47.5162 77.5769 47.53C71.4115 49.0484 68.2258 54.4058 67.0787 63.0587C67.0673 63.2383 67.0137 63.4063 66.9272 63.5336C66.8408 63.6608 66.7269 63.7394 66.6054 63.7555C66.6051 63.7556 66.6048 63.7557 66.6045 63.7557C66.6046 63.7557 66.6045 63.7557 66.6045 63.7557C66.5934 63.7576 66.5821 63.7589 66.5709 63.7596C66.5635 63.7598 66.5561 63.7598 66.5486 63.7596C66.5442 63.7597 66.5397 63.7597 66.5352 63.7596C66.4101 63.7521 66.2909 63.6784 66.1994 63.5518C66.1079 63.4253 66.0502 63.2544 66.0369 63.0702C64.8881 54.4098 61.7039 49.0488 55.534 47.5311C55.4235 47.5169 55.3189 47.4511 55.2354 47.3432C55.1518 47.2353 55.0937 47.0909 55.0694 46.9309C55.0691 46.9286 55.0688 46.9263 55.0684 46.924C55.0653 46.9025 55.0628 46.8808 55.0608 46.859C55.0603 46.8516 55.0598 46.8441 55.0594 46.8367C55.0582 46.8199 55.0574 46.8031 55.0569 46.7863C55.0567 46.7733 55.0568 46.7603 55.057 46.7473C55.057 46.7361 55.0572 46.7249 55.0576 46.7137C55.0584 46.695 55.0597 46.6764 55.0615 46.6579C55.0619 46.6524 55.0624 46.6468 55.0629 46.6413C55.0654 46.6173 55.0688 46.5935 55.0728 46.57C55.0996 46.4138 55.1587 46.2739 55.2419 46.1699C55.3251 46.0658 55.4282 46.0028 55.5368 45.9897C61.7026 44.4697 64.886 39.1122 66.0357 30.4587C66.0472 30.2789 66.1009 30.1107 66.1876 29.9835C66.2743 29.8562 66.3884 29.7779 66.5101 29.7621C66.5213 29.7608 66.5325 29.76 66.5437 29.7598C66.5499 29.7592 66.5561 29.7588 66.5623 29.7586V29.76Z" fill="url(#paint1_linear_8_71)"/>
<path fill-rule="evenodd" clip-rule="evenodd" d="M74.0597 20.7589C74.0602 20.759 74.0608 20.759 74.0613 20.7591C74.0633 20.7592 74.0652 20.7594 74.0672 20.7596C74.1216 20.7629 74.1734 20.7955 74.2132 20.8514C74.253 20.9073 74.278 20.9828 74.2837 21.0641C74.7821 24.8846 76.1677 27.2497 78.8503 27.9192C78.8984 27.9255 78.9439 27.9546 78.9802 28.0023C79.0165 28.0501 79.0418 28.114 79.0522 28.1847C79.0522 28.1847 79.0523 28.1847 79.0522 28.1847C79.0537 28.1948 79.055 28.205 79.0559 28.2152C79.0561 28.2185 79.0563 28.2217 79.0565 28.225C79.057 28.2323 79.0574 28.2397 79.0576 28.2472C79.0577 28.2529 79.0577 28.2587 79.0576 28.2644C79.0575 28.2693 79.0575 28.2743 79.0573 28.2792C79.0569 28.2874 79.0564 28.2956 79.0556 28.3038C79.0554 28.3063 79.0552 28.3087 79.055 28.3111C79.0472 28.3869 79.0226 28.4565 78.9851 28.5086C78.9477 28.5608 78.8996 28.5925 78.8487 28.5986C76.168 29.2685 74.783 31.6321 74.2842 35.4495C74.2793 35.5287 74.256 35.6029 74.2184 35.659C74.1808 35.7152 74.1313 35.7498 74.0784 35.7569C74.0783 35.757 74.0782 35.757 74.0781 35.757C74.0781 35.757 74.078 35.757 74.0781 35.757C74.0732 35.7578 74.0683 35.7584 74.0634 35.7587C74.0602 35.7588 74.057 35.7588 74.0537 35.7587C74.0518 35.7588 74.0499 35.7588 74.0479 35.7587C73.9935 35.7554 73.9417 35.7229 73.9019 35.6671C73.8621 35.6113 73.8371 35.5358 73.8313 35.4546C73.3318 31.6338 71.9473 29.2687 69.2648 28.5991C69.2167 28.5929 69.1712 28.5638 69.1349 28.5162C69.0986 28.4686 69.0733 28.4049 69.0628 28.3343C69.0626 28.3333 69.0625 28.3323 69.0624 28.3313C69.061 28.3218 69.0599 28.3122 69.0591 28.3026C69.0588 28.2993 69.0586 28.296 69.0584 28.2927C69.0579 28.2854 69.0576 28.2779 69.0574 28.2705C69.0573 28.2648 69.0573 28.259 69.0574 28.2533C69.0574 28.2484 69.0575 28.2434 69.0576 28.2385C69.058 28.2303 69.0586 28.222 69.0593 28.2139C69.0595 28.2114 69.0597 28.209 69.0599 28.2066C69.0611 28.196 69.0625 28.1855 69.0643 28.1751C69.0759 28.1062 69.1016 28.0445 69.1378 27.9986C69.1739 27.9527 69.2188 27.9249 69.266 27.9191C71.9468 27.2485 73.3309 24.8849 73.8307 21.0672C73.8357 20.9878 73.8591 20.9137 73.8968 20.8575C73.9345 20.8014 73.9841 20.7668 74.037 20.7598C74.0419 20.7593 74.0467 20.7589 74.0516 20.7588C74.0543 20.7586 74.057 20.7584 74.0597 20.7583V20.7589Z" fill="url(#paint2_linear_8_71)"/>
<path fill-rule="evenodd" clip-rule="evenodd" d="M59.0583 31.759C59.0586 31.7591 59.0589 31.7591 59.0592 31.7591C59.0604 31.7592 59.0616 31.7593 59.0628 31.7594C59.0954 31.7614 59.1265 31.781 59.1504 31.8145C59.1742 31.8481 59.1893 31.8934 59.1927 31.9421C59.4917 34.2344 60.3231 35.6535 61.9326 36.0552C61.9615 36.059 61.9888 36.0764 62.0106 36.1051C62.0324 36.1337 62.0475 36.1721 62.0538 36.2145C62.0538 36.2145 62.0538 36.2145 62.0538 36.2145C62.0547 36.2206 62.0555 36.2267 62.056 36.2328C62.0561 36.2348 62.0563 36.2367 62.0564 36.2387C62.0567 36.2431 62.0569 36.2475 62.057 36.252C62.0571 36.2554 62.0571 36.2589 62.057 36.2623C62.057 36.2653 62.0569 36.2683 62.0568 36.2712C62.0566 36.2762 62.0563 36.2811 62.0558 36.286C62.0557 36.2874 62.0556 36.2889 62.0555 36.2904C62.0508 36.3358 62.036 36.3776 62.0135 36.4089C61.9911 36.4402 61.9622 36.4592 61.9317 36.4629C60.3233 36.8648 59.4922 38.2829 59.193 40.5734C59.19 40.6209 59.176 40.6654 59.1535 40.6991C59.1309 40.7328 59.1012 40.7536 59.0695 40.7578C59.0694 40.7579 59.0694 40.7579 59.0693 40.7579C59.0693 40.7579 59.0693 40.7579 59.0693 40.7579C59.0664 40.7584 59.0634 40.7587 59.0605 40.7589C59.0586 40.759 59.0567 40.759 59.0547 40.7589C59.0535 40.759 59.0524 40.759 59.0512 40.7589C59.0186 40.757 58.9875 40.7374 58.9636 40.7039C58.9397 40.6704 58.9247 40.6252 58.9212 40.5764C58.6215 38.284 57.7909 36.8649 56.1813 36.4632C56.1525 36.4594 56.1252 36.442 56.1034 36.4134C56.0816 36.3849 56.0665 36.3466 56.0601 36.3043C56.06 36.3037 56.06 36.3031 56.0599 36.3024C56.0591 36.2968 56.0584 36.291 56.0579 36.2853C56.0578 36.2833 56.0576 36.2813 56.0575 36.2793C56.0572 36.2749 56.057 36.2705 56.0569 36.266C56.0568 36.2626 56.0568 36.2591 56.0569 36.2557C56.0569 36.2527 56.057 36.2497 56.057 36.2468C56.0573 36.2418 56.0576 36.2369 56.0581 36.232C56.0582 36.2305 56.0583 36.2291 56.0584 36.2276C56.0591 36.2213 56.06 36.215 56.061 36.2087C56.068 36.1674 56.0834 36.1304 56.1051 36.1028C56.1268 36.0753 56.1537 36.0586 56.1821 36.0551C57.7905 35.6528 58.621 34.2346 58.9209 31.944C58.9239 31.8964 58.9379 31.8519 58.9605 31.8182C58.9831 31.7845 59.0129 31.7638 59.0447 31.7596C59.0476 31.7592 59.0505 31.759 59.0534 31.759C59.055 31.7588 59.0567 31.7587 59.0583 31.7587V31.759Z" fill="url(#paint3_linear_8_71)"/>
<circle cx="1.50005" cy="1.50005" r="1.50005" transform="matrix(-1 0 0 1 57.0569 52.7594)" fill="url(#paint4_linear_8_71)"/>
<path fill-rule="evenodd" clip-rule="evenodd" d="M59.0569 62.7597C57.4 62.7597 56.0568 61.4165 56.0568 59.7596C56.0568 58.1027 57.4 56.7595 59.0569 56.7595C60.7139 56.7595 62.0571 58.1027 62.0571 59.7596C62.0571 61.4165 60.7139 62.7597 59.0569 62.7597ZM59.0569 60.7597C58.5046 60.7597 58.0569 60.312 58.0569 59.7597C58.0569 59.2074 58.5046 58.7596 59.0569 58.7596C59.6093 58.7596 60.057 59.2074 60.057 59.7597C60.057 60.312 59.6093 60.7597 59.0569 60.7597Z" fill="url(#paint5_linear_8_71)"/>
<defs>
<linearGradient id="paint0_linear_8_71" x1="-4.49998" y1="0.499994" x2="121.653" y2="12.9613" gradientUnits="userSpaceOnUse">
<stop stop-color="#3E6AB6"/>
<stop offset="0.9999" stop-color="#B84ABE"/>
<stop offset="1" stop-color="#EB8CEF"/>
</linearGradient>
<linearGradient id="paint1_linear_8_71" x1="51.5953" y1="23.3763" x2="86.7533" y2="25.4105" gradientUnits="userSpaceOnUse">
<stop stop-color="#3E6AB6"/>
<stop offset="0.9999" stop-color="#B84ABE"/>
<stop offset="1" stop-color="#EB8CEF"/>
</linearGradient>
<linearGradient id="paint2_linear_8_71" x1="67.5523" y1="17.9426" x2="82.8398" y2="18.8143" gradientUnits="userSpaceOnUse">
<stop stop-color="#3E6AB6"/>
<stop offset="0.9999" stop-color="#B84ABE"/>
<stop offset="1" stop-color="#EB8CEF"/>
</linearGradient>
<linearGradient id="paint3_linear_8_71" x1="55.1538" y1="30.0692" x2="64.3264" y2="30.5923" gradientUnits="userSpaceOnUse">
<stop stop-color="#3E6AB6"/>
<stop offset="0.9999" stop-color="#B84ABE"/>
<stop offset="1" stop-color="#EB8CEF"/>
</linearGradient>
<linearGradient id="paint4_linear_8_71" x1="3.45161" y1="-0.563145" x2="-1.11615" y2="-0.172452" gradientUnits="userSpaceOnUse">
<stop stop-color="#3E6AB6"/>
<stop offset="0.9999" stop-color="#B84ABE"/>
<stop offset="1" stop-color="#EB8CEF"/>
</linearGradient>
<linearGradient id="paint5_linear_8_71" x1="55.1538" y1="55.6332" x2="64.2894" y2="56.4146" gradientUnits="userSpaceOnUse">
<stop stop-color="#3E6AB6"/>
<stop offset="0.9999" stop-color="#B84ABE"/>
<stop offset="1" stop-color="#EB8CEF"/>
</linearGradient>
</defs>
</svg>
