<?xml version="1.0" standalone="no"?>
<!DOCTYPE svg PUBLIC "-//W3C//DTD SVG 20010904//EN"
 "http://www.w3.org/TR/2001/REC-SVG-20010904/DTD/svg10.dtd">
<svg version="1.0" xmlns="http://www.w3.org/2000/svg"
 width="289.000000pt" height="289.000000pt" viewBox="0 0 289.000000 289.000000"
 preserveAspectRatio="xMidYMid meet">
<metadata>
Created by potrace 1.14, written by Peter Selinger 2001-2017
</metadata>
<g transform="translate(0.000000,289.000000) scale(0.100000,-0.100000)"
fill="#000000" stroke="none">
<path d="M655 2356 c-95 -15 -209 -51 -230 -73 -8 -8 -15 -31 -15 -52 0 -37
-1 -38 -50 -49 -27 -6 -65 -18 -85 -26 l-35 -15 0 -831 0 -830 23 -11 c18 -8
39 -6 88 9 170 52 423 63 599 25 165 -36 327 -110 424 -194 67 -59 84 -65 115
-40 148 120 251 175 399 215 235 63 447 58 706 -15 46 -13 49 -13 67 10 18 22
19 52 19 832 0 930 12 834 -109 865 l-71 18 0 42 c0 50 -7 56 -88 83 -162 55
-378 63 -552 20 -109 -27 -269 -102 -342 -162 -32 -26 -60 -47 -63 -47 -3 0
-33 22 -67 50 -180 145 -482 217 -733 176z m297 -101 c157 -23 304 -89 406
-180 l52 -47 0 -704 c0 -387 -2 -704 -5 -704 -3 0 -27 16 -54 35 -63 45 -177
98 -272 126 -137 39 -444 36 -551 -6 -17 -7 -18 31 -18 719 l0 725 38 10 c155
42 257 48 404 26z m1328 -6 c25 -5 62 -14 83 -20 l37 -10 0 -722 0 -723 -87
18 c-122 26 -364 20 -475 -11 -93 -26 -205 -76 -276 -124 l-52 -36 2 712 3
711 60 49 c103 83 244 142 403 167 66 10 237 4 302 -11z m-1870 -863 c0 -643
1 -706 17 -721 18 -19 34 -17 138 15 100 32 322 39 431 15 158 -34 309 -112
399 -204 45 -48 72 -51 106 -15 76 82 227 169 356 206 68 20 100 23 248 22
148 0 179 -3 240 -23 39 -12 82 -25 98 -28 60 -12 57 -47 57 728 0 390 4 709
9 709 4 0 22 -5 40 -11 l31 -11 0 -745 c0 -719 -1 -744 -18 -738 -51 16 -183
35 -279 41 -269 16 -558 -60 -759 -201 -36 -25 -67 -45 -69 -45 -3 0 -32 20
-64 43 -114 84 -283 153 -462 188 -98 19 -377 17 -476 -4 -46 -10 -90 -20 -98
-23 -13 -6 -15 78 -13 742 l3 748 25 7 c14 4 28 7 33 8 4 1 7 -316 7 -703z"/>
<path d="M733 2096 c-99 -19 -147 -44 -151 -78 -2 -19 3 -31 20 -42 21 -14 29
-13 88 6 87 28 249 30 335 4 84 -25 147 -59 205 -111 55 -49 78 -55 103 -27
27 30 20 47 -41 104 -135 124 -358 182 -559 144z"/>
<path d="M715 1843 c-94 -20 -130 -41 -130 -77 0 -46 24 -53 102 -32 204 54
404 15 542 -108 58 -51 72 -55 101 -26 31 31 25 50 -32 103 -137 127 -376 185
-583 140z"/>
<path d="M691 1589 c-85 -22 -113 -42 -109 -77 5 -39 29 -49 85 -33 96 27 150
33 238 28 134 -8 219 -41 326 -127 34 -27 66 -50 71 -50 14 0 48 39 48 57 0
26 -92 106 -169 147 -144 75 -332 97 -490 55z"/>
<path d="M697 1344 c-83 -20 -117 -40 -117 -69 0 -24 23 -55 41 -55 5 0 42 9
81 20 185 51 398 7 530 -109 54 -48 92 -54 110 -16 14 32 -4 60 -75 116 -62
50 -154 94 -240 114 -78 18 -253 18 -330 -1z"/>
<path d="M772 1110 c-68 -9 -159 -36 -179 -53 -19 -14 -16 -52 7 -72 19 -17
22 -17 75 0 204 64 445 16 570 -115 33 -35 64 -38 89 -11 25 27 14 52 -46 106
-123 110 -334 169 -516 145z"/>
<path d="M2170 2152 c0 -12 -9 -46 -20 -76 -21 -55 -76 -116 -105 -116 -26 0
-16 -14 22 -35 48 -26 79 -72 94 -141 12 -52 28 -58 29 -9 0 11 11 43 24 72
18 38 35 58 65 75 23 13 41 26 41 29 0 4 -14 12 -31 19 -42 18 -75 65 -93 134
-17 65 -26 81 -26 48z"/>
<path d="M1927 1807 c-34 -183 -128 -320 -250 -365 -70 -27 -69 -48 3 -75 70
-26 156 -110 194 -191 15 -32 38 -104 50 -159 13 -56 27 -102 33 -104 5 -2 17
35 27 83 39 202 122 322 259 375 61 24 61 49 -1 71 -135 48 -217 166 -257 371
-10 48 -23 87 -29 87 -6 0 -19 -42 -29 -93z"/>
<path d="M1731 1828 c-2 -31 -33 -86 -58 -99 l-24 -13 26 -19 c30 -22 55 -66
56 -99 0 -14 6 -5 15 24 9 31 25 56 44 70 l30 22 -30 25 c-17 14 -36 44 -44
66 -8 22 -15 32 -15 23z"/>
<path d="M1605 1216 c-16 -12 -18 -19 -10 -42 12 -35 40 -42 66 -18 24 21 24
36 1 57 -23 21 -33 21 -57 3z"/>
<path d="M1695 1098 c-31 -18 -44 -40 -45 -76 0 -73 98 -112 148 -59 66 71
-19 183 -103 135z m68 -62 c8 -21 -16 -48 -36 -40 -17 6 -23 35 -10 47 11 12
41 7 46 -7z"/>
</g>
</svg>
